<?xml version="1.0" encoding="UTF-8"?>
<svg width="303px" height="285px" viewBox="0 0 303 285" version="1.1" xmlns="http://www.w3.org/2000/svg" xmlns:xlink="http://www.w3.org/1999/xlink">
    <!-- Generator: Sketch 53 (72520) - https://sketchapp.com -->
    <title>No results for filters</title>
    <desc>Created with Sketch.</desc>
    <g id="No-results-for-filters" stroke="none" stroke-width="1" fill="none" fill-rule="evenodd">
        <g id="emptystate-no-article-500px" transform="translate(2.000000, 0.000000)">
            <rect id="Rectangle" fill="#FFFFFF" fill-rule="nonzero" opacity="0.01" x="0" y="0" width="300" height="300"></rect>
            <g id="Group" transform="translate(59.200000, 28.200000)">
                <g transform="translate(0.200000, 70.200000)">
                    <g transform="translate(54.600000, 0.000000)" id="Path">
                        <polygon stroke="#92A2B1" fill="#B1BDC7" fill-rule="nonzero" stroke-linejoin="round" points="122.082 89.076 122.082 77.514 4.59 77.514 4.59 80.748 36.276 80.748 46.914 89.076"></polygon>
                        <g transform="translate(15.600000, 0.000000)">
                            <polygon fill="#FFFFFF" fill-rule="nonzero" points="90.864 12.234 90.864 89.076 31.314 89.076 20.676 80.748 0.66 80.748 0.66 0.354 78.978 0.354"></polygon>
                            <g stroke="#B1BDC7">
                                <polyline points="88.8 10.176 90.864 12.234 90.864 15.15"></polyline>
                                <path d="M90.864,20.61 L90.864,83.43" stroke-dasharray="9.1"></path>
                                <polyline points="90.864 86.16 90.864 89.076 87.948 89.076"></polyline>
                                <path d="M82.134,89.076 L31.314,89.076 L20.676,80.748 L6.486,80.748" stroke-dasharray="9.69"></path>
                                <polyline points="3.576 80.748 0.66 80.748 0.66 77.832"></polyline>
                                <path d="M0.66,72.096 L0.66,6.138" stroke-dasharray="9.56"></path>
                                <polyline points="0.66 3.27 0.66 0.354 3.576 0.354"></polyline>
                                <path d="M9.528,0.354 L78.978,0.354 L86.694,8.07" stroke-dasharray="9.92"></path>
                            </g>
                        </g>
                        <polygon stroke="#B1BDC7" fill="#EBEFF3" fill-rule="nonzero" stroke-linejoin="round" points="126.474 89.076 126.474 170.028 0.198 170.028 0.198 80.748 36.276 80.748 46.914 89.076"></polygon>
                        <polygon fill="#CFD7DF" fill-rule="nonzero" points="94.578 12.234 94.578 0.354 106.464 12.234"></polygon>
                    </g>
                    <g transform="translate(105.000000, 37.200000)" fill="#CFD7DF" fill-rule="nonzero" id="Path">
                        <g>
                            <path d="M7.242,7.8 C6.9998689,7.79971079 6.76739706,7.70500004 6.594,7.536 L0.762,1.704 C0.408252811,1.34441729 0.408252811,0.767582712 0.762,0.408 C0.933280345,0.235050914 1.16659017,0.137747614 1.41,0.137747614 C1.65340983,0.137747614 1.88671966,0.235050914 2.058,0.408 L7.89,6.24 C8.06294909,6.41128034 8.16025239,6.64459017 8.16025239,6.888 C8.16025239,7.13140983 8.06294909,7.36471966 7.89,7.536 C7.71660294,7.70500004 7.4841311,7.79971079 7.242,7.8 Z"></path>
                            <path d="M1.41,7.8 C1.1678689,7.79971079 0.93539706,7.70500004 0.762,7.536 C0.408252811,7.17641729 0.408252811,6.59958271 0.762,6.24 L6.594,0.408 C6.95729112,0.0851406804 7.50926994,0.10138942 7.85294026,0.445059741 C8.19661058,0.788730062 8.21285932,1.34070888 7.89,1.704 L2.058,7.536 C1.88569228,7.70665649 1.65250947,7.80165689 1.41,7.8 L1.41,7.8 Z"></path>
                            <path d="M23.688,7.662 C23.4642549,7.67027759 23.2470634,7.58557291 23.088,7.428 L17.262,1.602 C16.9500316,1.28836792 16.9500316,0.781632079 17.262,0.468 C17.4110585,0.315159401 17.6155084,0.228969258 17.829,0.228969258 C18.0424916,0.228969258 18.2469415,0.315159401 18.396,0.468 L24.222,6.294 C24.4481933,6.52375973 24.5152547,6.86642241 24.3923629,7.16450049 C24.2694711,7.46257858 23.9803974,7.65841364 23.658,7.662 L23.688,7.662 Z"></path>
                            <path d="M17.856,7.662 C17.6444123,7.66185616 17.4415432,7.57768706 17.292,7.428 C16.9800316,7.11436792 16.9800316,6.60763208 17.292,6.294 L23.118,0.468 C23.3149241,0.240004481 23.6227848,0.141231531 23.915596,0.212102108 C24.2084072,0.282972685 24.4370273,0.511592804 24.5078979,0.804404012 C24.5787685,1.09721522 24.4799955,1.40507594 24.252,1.602 L18.426,7.428 C18.2749899,7.57916524 18.0696653,7.66345638 17.856,7.662 L17.856,7.662 Z"></path>
                        </g>
                        <g>
                            <path d="M7.242,7.8 C6.9998689,7.79971079 6.76739706,7.70500004 6.594,7.536 L0.762,1.704 C0.408252811,1.34441729 0.408252811,0.767582712 0.762,0.408 C0.933280345,0.235050914 1.16659017,0.137747614 1.41,0.137747614 C1.65340983,0.137747614 1.88671966,0.235050914 2.058,0.408 L7.89,6.24 C8.06294909,6.41128034 8.16025239,6.64459017 8.16025239,6.888 C8.16025239,7.13140983 8.06294909,7.36471966 7.89,7.536 C7.71660294,7.70500004 7.4841311,7.79971079 7.242,7.8 Z"></path>
                            <path d="M1.41,7.8 C1.1678689,7.79971079 0.93539706,7.70500004 0.762,7.536 C0.408252811,7.17641729 0.408252811,6.59958271 0.762,6.24 L6.594,0.408 C6.95729112,0.0851406804 7.50926994,0.10138942 7.85294026,0.445059741 C8.19661058,0.788730062 8.21285932,1.34070888 7.89,1.704 L2.058,7.536 C1.88569228,7.70665649 1.65250947,7.80165689 1.41,7.8 L1.41,7.8 Z"></path>
                            <path d="M23.688,7.662 C23.4642549,7.67027759 23.2470634,7.58557291 23.088,7.428 L17.262,1.602 C16.9500316,1.28836792 16.9500316,0.781632079 17.262,0.468 C17.4110585,0.315159401 17.6155084,0.228969258 17.829,0.228969258 C18.0424916,0.228969258 18.2469415,0.315159401 18.396,0.468 L24.222,6.294 C24.4481933,6.52375973 24.5152547,6.86642241 24.3923629,7.16450049 C24.2694711,7.46257858 23.9803974,7.65841364 23.658,7.662 L23.688,7.662 Z"></path>
                            <path d="M17.856,7.662 C17.6444123,7.66185616 17.4415432,7.57768706 17.292,7.428 C16.9800316,7.11436792 16.9800316,6.60763208 17.292,6.294 L23.118,0.468 C23.3149241,0.240004481 23.6227848,0.141231531 23.915596,0.212102108 C24.2084072,0.282972685 24.4370273,0.511592804 24.5078979,0.804404012 C24.5787685,1.09721522 24.4799955,1.40507594 24.252,1.602 L18.426,7.428 C18.2749899,7.57916524 18.0696653,7.66345638 17.856,7.662 L17.856,7.662 Z"></path>
                        </g>
                    </g>
                    <g transform="translate(0.000000, 127.200000)">
                        <rect id="Rectangle" fill="#FFFFFF" fill-rule="nonzero" x="0.57" y="0.708" width="42.12" height="42.12"></rect>
                        <path d="M0.57,0.708 L0.57,24.93" id="Path" stroke="#92A2B1"></path>
                        <rect id="Rectangle" fill="#CFD7DF" fill-rule="nonzero" x="42.69" y="0.708" width="25.596" height="42.12"></rect>
                        <path d="M5.526,42.828 L29.592,42.828" id="Path" stroke="#92A2B1"></path>
                        <path d="M34.278,42.828 L54.36,42.828" id="Path" stroke="#92A2B1"></path>
                        <path d="M68.142,8.574 L68.142,26.856" id="Path" stroke="#92A2B1"></path>
                        <path d="M42.69,24.384 L42.69,42.66" id="Path" stroke="#92A2B1"></path>
                        <path d="M6.708,0.486 L31.584,0.486" id="Path" stroke="#92A2B1"></path>
                        <path d="M5.454,31.65 L5.454,8.022" id="Path" stroke="#92A2B1"></path>
                        <path d="M23.19,37.044 L8.508,37.044" id="Path" stroke="#92A2B1"></path>
                        <path d="M57.492,37.044 L50.148,37.044" id="Path" stroke="#FFFFFF"></path>
                        <path d="M36.684,17.868 L36.684,30.75" id="Path" stroke="#92A2B1"></path>
                        <path d="M17.496,9.774 L29.484,9.774" id="Path" stroke="#92A2B1"></path>
                        <polyline id="Path" stroke="#92A2B1" points="63.948 42.828 68.286 42.828 68.286 37.944"></polyline>
                        <path d="M47.232,8.934 L47.232,30.288" id="Path" stroke="#FFFFFF"></path>
                        <path d="M42.69,0.708 L42.69,14.562" id="Path" stroke="#FFFFFF"></path>
                        <path d="M68.286,0.708 L61.938,0.708" id="Path" stroke="#92A2B1"></path>
                    </g>
                    <g transform="translate(48.000000, 9.000000)" fill-rule="nonzero" stroke-width="1.16">
                        <path d="M41.742,44.214 L2.742,69.966 C0.288198927,71.5864035 -0.387403338,74.8891988 1.23300009,77.3429999 C2.85340353,79.796801 6.15619886,80.4724034 8.61,78.852 L47.61,53.112 C46.3878097,51.8093877 45.2797389,50.4042254 44.298,48.912 C43.3096153,47.4241441 42.4543052,45.8520601 41.742,44.214 L41.742,44.214 Z" id="Path" stroke="#81D4C0" fill="#B2E4D9"></path>
                        <path d="M53.238,5.244 C40.4231165,13.6981285 35.5674956,30.1580751 41.742,44.214 C42.4562252,45.8522737 43.3135466,47.4243642 44.304,48.912 C48.9049062,55.8934791 56.0931516,60.7588757 64.2844364,62.4358494 C72.4757213,64.1128231 80.9976582,62.4637183 87.972,57.852 C97.3695141,51.6473685 102.743044,40.9005385 102.068432,29.6597368 C101.393821,18.4189351 94.7735578,8.39190699 84.7014322,3.35573681 C74.6293067,-1.68043336 62.6355141,-0.9606315 53.238,5.244 L53.238,5.244 Z M89.184,19.284 C95.9566989,29.5473155 93.127522,43.3576825 82.8646927,50.1311181 C72.6018634,56.9045537 58.7912933,54.0763681 52.0171211,43.814025 C45.2429489,33.5516818 48.0701432,19.7409088 58.332,12.966 C63.2603908,9.71035315 69.2806571,8.54693994 75.0671989,9.73193187 C80.8537407,10.9169238 85.9320731,14.3531539 89.184,19.284 L89.184,19.284 Z" id="Shape" stroke="#B2E4D9" fill="#DFF4F0"></path>
                    </g>
                    <path d="M181.074,170.028 L221.382,170.028" id="Path" stroke="#B1BDC7" fill="#EBEFF3" fill-rule="nonzero" stroke-linejoin="round"></path>
                </g>
                <g transform="translate(185.000000, 34.400000)">
                    <circle id="Oval" fill="#EBEFF3" fill-rule="nonzero" cx="17.07" cy="17.22" r="16.734"></circle>
                    <circle id="Oval" fill="#FFFFFF" fill-rule="nonzero" cx="17.07" cy="17.22" r="13.248"></circle>
                    <path d="M0.282,17.22 C0.282,7.9416162 7.8036162,0.42 17.082,0.42" id="Path" stroke="#CFD7DF" stroke-width="0.5"></path>
                    <path d="M28.944,29.094 C22.3844277,35.6476195 11.7555723,35.6476195 5.196,29.094" id="Path" stroke="#CFD7DF" stroke-width="0.5"></path>
                    <path d="M17.07,6.474 L17.07,3.972" id="Path" stroke="#CFD7DF" stroke-width="0.5"></path>
                    <path d="M17.07,27.972 L17.07,30.468" id="Path" stroke="#CFD7DF" stroke-width="0.5"></path>
                    <path d="M30.318,17.22 L27.822,17.22" id="Path" stroke="#CFD7DF" stroke-width="0.5"></path>
                    <path d="M6.324,17.22 L3.822,17.22" id="Path" stroke="#CFD7DF" stroke-width="0.5"></path>
                    <path d="M26.442,26.592 L24.672,24.822" id="Path" stroke="#CFD7DF" stroke-width="0.5"></path>
                    <path d="M9.474,9.624 L7.704,7.854" id="Path" stroke="#CFD7DF" stroke-width="0.5"></path>
                    <path d="M7.704,26.592 L9.474,24.822" id="Path" stroke="#CFD7DF" stroke-width="0.5"></path>
                    <path d="M24.672,9.624 L26.442,7.854" id="Path" stroke="#CFD7DF" stroke-width="0.5"></path>
                    <polyline id="Path" stroke="#CFD7DF" stroke-width="0.5" points="17.208 10.038 17.208 17.79 21.108 26.028"></polyline>
                </g>
                <polygon id="Rectangle" fill="#EBEFF3" fill-rule="nonzero" transform="translate(27.186190, 20.939458) rotate(10.680000) translate(-27.186190, -20.939458) " points="23.5801898 2.07845848 30.7921898 2.07845848 30.7921898 39.8004585 23.5801898 39.8004585"></polygon>
                <rect id="Rectangle" fill="#EBEFF3" fill-rule="nonzero" x="32.822" y="31.14" width="25.998" height="8.664"></rect>
                <rect id="Rectangle" fill="#EBEFF3" fill-rule="nonzero" x="32.822" y="18.576" width="21.99" height="7.332"></rect>
                <g transform="translate(20.000000, 4.800000)" id="Path" stroke="#CFD7DF" stroke-width="0.5">
                    <path d="M5.772,0.294 L14.286,1.902"></path>
                    <path d="M5.394,2.28 L13.914,3.888"></path>
                    <path d="M0.468,28.398 L8.988,30"></path>
                    <path d="M0.096,30.384 L8.61,31.992"></path>
                </g>
                <rect id="Rectangle" fill="#EBEFF3" fill-rule="nonzero" x="17.51" y="0.234" width="1.446" height="40.416"></rect>
                <rect id="Rectangle" fill="#EBEFF3" fill-rule="nonzero" x="61.562" y="0.234" width="1.446" height="40.416"></rect>
                <rect id="Rectangle" fill="#CFD7DF" fill-rule="nonzero" x="32.822" y="26.898" width="27.234" height="3.222"></rect>
                <circle id="Oval" stroke="#FFFFFF" stroke-width="0.5" cx="36.71" cy="22.296" r="2.442"></circle>
                <circle id="Oval" stroke="#FFFFFF" stroke-width="0.5" cx="53" cy="35.472" r="2.442"></circle>
                <path d="M17.51,0.234 L17.51,21.414" id="Path" stroke="#CFD7DF" stroke-width="0.5"></path>
                <path d="M4.592,40.782 L79.646,40.782" id="Path" stroke="#CFD7DF" stroke-width="0.5"></path>
                <path d="M18.956,39.852 L18.956,31.968" id="Path" stroke="#CFD7DF" stroke-width="0.5"></path>
                <path d="M63.008,39.852 L63.008,24.078" id="Path" stroke="#CFD7DF" stroke-width="0.5"></path>
                <path d="M54.806,18.576 L49.79,18.576" id="Path" stroke="#CFD7DF" stroke-width="0.5"></path>
                <path d="M37.838,31.362 L32.822,31.362" id="Path" stroke="#CFD7DF" stroke-width="0.5"></path>
            </g>
        </g>
        <g id="Group" transform="translate(67.500000, 183.500000) scale(-1, 1) translate(-67.500000, -183.500000) translate(23.000000, 91.000000)">
            <g>
                <path d="M65.2801515,59.3009091 C66.6825758,61.3190909 68.6513636,65.1132727 69.9998485,67.1045455 C73.4182576,64.2790909 78.0300758,60.0543636 81.4619697,57.2289091 L62.5494697,38.0023636" id="Path" stroke="#273139" stroke-width="0.61152" stroke-linecap="round" stroke-linejoin="round"></path>
                <polygon id="Path" fill="#273139" fill-rule="nonzero" points="63.4125 43.7205455 66.3656818 60.5723636 65.1318182 59.6776364"></polygon>
                <ellipse id="Oval" stroke="#273139" stroke-width="0.68544" fill="#FFFFFF" fill-rule="nonzero" stroke-linecap="round" stroke-linejoin="round" cx="40.7040152" cy="18.5538182" rx="2.93969697" ry="2.93309091"></ellipse>
                <path d="M42.9627273,15.6207273 C41.1673029,15.5120797 39.5350102,14.5449272 38.5801515,13.024 C37.6562431,11.4591871 37.893548,9.47140668 39.16,8.16690909 C40.6837879,6.76090909 43.0436364,6.98290909 45.0933333,7.29909091 L49.1387879,7.918 C49.6205737,7.9571037 50.0900808,8.08964136 50.5209848,8.30818182 C51.6267424,8.98090909 51.8020455,10.5752727 51.2289394,11.7189091 C49.8939394,14.3963636 45.7473485,15.8494545 42.9627273,15.6207273 Z" id="Path" fill="#273139" fill-rule="nonzero"></path>
                <path d="M52.1931061,102.725455 L42.8750758,134.444545 L42.989697,133.052 L43.9268939,173.018727 C43.9529941,174.472607 42.832853,175.691979 41.3789443,175.792394 C39.9250357,175.892809 38.6471915,174.839056 38.4722727,173.395455 L33.8739394,133.704545 C33.8340577,133.386364 33.8454388,133.063867 33.9076515,132.749273 L33.995303,132.312 L40.2725,99.8596364 C40.6758584,97.6978463 42.2090856,95.9173596 44.2902823,95.1939171 C46.3714791,94.4704745 48.6816187,94.9149727 50.3439434,96.3587129 C52.0062681,97.8024532 52.7659603,100.024125 52.334697,102.180545 C52.2942424,102.348727 52.2470455,102.543818 52.1931061,102.725455 Z" id="Path" fill="#273139" fill-rule="nonzero"></path>
                <path d="M65.2734091,101.467455 L62.7045455,134.828 L62.6303788,133.859273 L68.0243182,172.709273 C68.2037765,173.670642 67.8555633,174.654508 67.1108471,175.290259 C66.3661309,175.92601 65.3380519,176.11706 64.4138774,175.791441 C63.4897029,175.465823 62.8098371,174.673006 62.6303788,173.711636 L53.6562121,135.520909 C53.6106327,135.347444 53.5879661,135.16878 53.5887879,134.989455 L53.5887879,134.545455 L53.0426515,101.090727 C52.9867954,97.7060251 55.6915382,94.9170033 59.0838636,94.8612727 C62.476189,94.8055422 65.2714924,97.5042069 65.3273485,100.888909 C65.2936364,101.084 65.2868939,101.285818 65.2734091,101.467455 Z" id="Path" fill="#273139" fill-rule="nonzero"></path>
                <path d="M60.0547727,3.23581818 C57.770949,4.3140774 56.1827184,6.46486995 55.8272727,8.96072727 C55.8879545,6.364 54.5259848,1.85672727 52.3684091,0.403636364" id="Path" stroke="#273139" stroke-width="0.68544" stroke-linecap="round" stroke-linejoin="round"></path>
                <path d="M41.0276515,18.6009091 C41.0342757,23.4224844 44.3007525,27.6324106 48.9774102,28.8467793 C53.6540679,30.061148 58.5630271,27.9741039 60.9245455,23.7674545 C60.9554413,23.7250759 60.9825166,23.6800517 61.0054545,23.6329091 C63.0947217,19.7458095 62.5519368,14.97389 59.6427684,11.652788 C56.7335999,8.3316861 52.0666455,7.15617572 47.9261669,8.70161574 C43.7856883,10.2470558 41.037873,14.1901404 41.0276515,18.6009091 L41.0276515,18.6009091 Z" id="Path" stroke="#273139" stroke-width="0.68544" fill="#EBEFF3" fill-rule="nonzero" stroke-linecap="round" stroke-linejoin="round"></path>
                <path d="M42.7267424,13.9187273 C42.7267414,20.410568 47.9992966,25.6742861 54.5057576,25.678 C56.7867203,25.6821705 59.0186808,25.0178298 60.9245455,23.7674545 C60.9554413,23.7250759 60.9825166,23.6800517 61.0054545,23.6329091 C63.6218498,18.6530424 61.8840381,12.5012591 57.0462971,9.6176514 C52.2085561,6.73404371 45.9557606,8.1229064 42.8009091,12.7818182 C42.7469697,13.1585455 42.7267424,13.542 42.7267424,13.9187273 Z" id="Path" fill="#273139" fill-rule="nonzero"></path>
                <path d="M56.6363636,8.42927273 C53.9765321,12.6254938 54.5960784,18.1021703 58.1264394,21.6012727 C58.4051299,21.8832005 58.7024643,22.1461546 59.0164394,22.3883636 C55.4493735,22.4852236 52.3542305,19.9491751 51.7557731,16.4392357 C51.1573157,12.9292962 53.2378583,9.51473619 56.6363636,8.42927273 L56.6363636,8.42927273 Z" id="Path" fill="#FF5959" fill-rule="nonzero"></path>
                <path d="M53.5550758,14.6587273 C53.5523488,18.1073657 55.6326989,21.2178158 58.8254803,22.5388098 C62.0182617,23.8598037 65.6942428,23.1310008 68.1382914,20.6924444 C70.58234,18.253888 71.3127845,14.5861675 69.9888153,11.4005609 C68.6648461,8.21495434 65.5473905,6.13927918 62.0909848,6.142 C57.3767324,6.142 53.5550758,9.95506868 53.5550758,14.6587273 L53.5550758,14.6587273 Z" id="Path" fill="#273139" fill-rule="nonzero"></path>
                <path d="M63.459697,134.922182 C62.1519059,136.095677 60.3498211,136.553359 58.6388636,136.146545" id="Path" stroke="#EBEFF3" stroke-width="0.6" stroke-linecap="round" stroke-linejoin="round"></path>
                <g transform="translate(49.219697, 176.254545)" id="Path">
                    <path d="M20.7801515,0.390181818 C18.2967327,2.01364919 15.1644285,2.29133835 12.4330303,1.13018182 C10.3091667,1.13018182 8.38757576,3.14836364 4.03871212,3.14836364 C-0.310151515,3.14836364 -1.07204545,7.85745455 2.91272727,7.85745455 L11.0036364,7.93145455 C11.8619854,7.96126051 12.7143889,7.77868294 13.4848485,7.4 L16.1211364,6.05454545 L22.6815152,5.65763636 L20.7801515,0.390181818 Z" fill="#273139" fill-rule="nonzero"></path>
                    <polygon fill="#273139" fill-rule="nonzero" points="22.6680303 6.31018182 22.6680303 8.07272727 16.1076515 8.07272727 16.1076515 6.70709091"></polygon>
                    <path d="M10.6260606,3.53854545 C10.6856312,3.10260388 10.5458907,2.66300889 10.2453843,2.34101643 C9.94487802,2.01902398 9.51535867,1.84865712 9.07530303,1.87690909" stroke="#EBEFF3" stroke-width="0.6" stroke-linecap="round" stroke-linejoin="round"></path>
                    <path d="M8.80560606,4.19109091 C8.86259893,3.75388135 8.72125988,3.31408316 8.42007898,2.99146404 C8.11889808,2.66884493 7.68923816,2.49700018 7.24810606,2.52272727" stroke="#EBEFF3" stroke-width="0.6" stroke-linecap="round" stroke-linejoin="round"></path>
                    <path d="M6.93121212,4.54763636 C6.99078274,4.11169479 6.85104218,3.6720998 6.55053586,3.35010734 C6.25002953,3.02811489 5.82051019,2.85774803 5.38045455,2.886" stroke="#EBEFF3" stroke-width="0.6" stroke-linecap="round" stroke-linejoin="round"></path>
                </g>
                <path d="M43.434697,134.922182 C42.1269059,136.095677 40.3248211,136.553359 38.6138636,136.146545" id="Path" stroke="#EBEFF3" stroke-width="0.6" stroke-linecap="round" stroke-linejoin="round"></path>
                <g transform="translate(24.272727, 176.254545)" id="Path">
                    <path d="M21.0768182,0.390181818 C18.5933994,2.01364919 15.4610952,2.29133835 12.729697,1.13018182 C10.6058333,1.13018182 8.68424242,3.14836364 4.33537879,3.14836364 C-0.0134848485,3.14836364 -0.768636364,7.85745455 3.20939394,7.85745455 L11.300303,7.93145455 C12.1489955,7.94003425 12.9869165,7.74141747 13.7410606,7.35290909 L16.3773485,6.00745455 L22.9377273,5.61054545 L21.0768182,0.390181818 Z" fill="#273139" fill-rule="nonzero"></path>
                    <polygon fill="#273139" fill-rule="nonzero" points="22.964697 6.31018182 22.964697 8.07272727 16.4043182 8.07272727 16.4043182 6.70709091"></polygon>
                    <path d="M10.9227273,3.53854545 C10.9822979,3.10260388 10.8425573,2.66300889 10.542051,2.34101643 C10.2415447,2.01902398 9.81202534,1.84865712 9.3719697,1.87690909" stroke="#EBEFF3" stroke-width="0.6" stroke-linecap="round" stroke-linejoin="round"></path>
                    <path d="M9.10227273,4.19109091 C9.16150841,3.75459581 9.0218909,3.31455336 8.72169224,2.9915883 C8.42149359,2.66862324 7.99220933,2.49661965 7.55151515,2.52272727" stroke="#EBEFF3" stroke-width="0.6" stroke-linecap="round" stroke-linejoin="round"></path>
                    <path d="M7.22787879,4.54763636 C7.28744941,4.11169479 7.14770885,3.6720998 6.84720252,3.35010734 C6.5466962,3.02811489 6.11717685,2.85774803 5.67712121,2.886" stroke="#EBEFF3" stroke-width="0.6" stroke-linecap="round" stroke-linejoin="round"></path>
                </g>
                <path d="M65.239697,98.8236364 L40.8118939,98.8236364 C38.6071212,98.8236364 38.6003788,102.247818 40.8118939,102.247818 L65.239697,102.247818 C67.4444697,102.247818 67.4512121,98.8236364 65.239697,98.8236364 Z" id="Path" fill="#475867" fill-rule="nonzero"></path>
                <path d="M44.5,99.6645455 L62.030303,99.6645455 C64.0585765,99.6630125 65.9895414,98.7968311 67.3368934,97.284145 C68.6842454,95.7714589 69.3195755,93.7564343 69.0828788,91.7465455 L63.014697,39.7178182 C62.354145,35.7230093 59.4411106,32.4679521 55.5373485,31.3625455 C54.3237283,31.8370115 53.0313343,32.0789335 51.7278788,32.0756364 C50.7567751,32.0749069 49.790355,31.9413607 48.8556061,31.6787273 C45.0883208,33.1476803 42.5038999,36.6477878 42.2143182,40.6730909 L37.4946212,91.9281818 C37.3137294,93.9004167 37.9677828,95.8582542 39.2984632,97.3277861 C40.6291437,98.7973181 42.5151641,99.6446015 44.5,99.6645455 L44.5,99.6645455 Z" id="Path" fill="#5CA6F4" fill-rule="nonzero"></path>
                <path d="M42.3559091,38.0023636 L23.4366667,57.2289091 C26.8550758,60.0543636 31.4668939,64.2790909 34.8987879,67.1045455 C36.3012121,65.0863636 41.3647727,58.7492727 42.767197,56.758" id="Path" stroke="#273139" stroke-width="0.61152" stroke-linecap="round" stroke-linejoin="round"></path>
                <path d="M88.5010606,67.1718182 C83.9566667,71.4436364 78.6031818,78.3525455 74.0587879,82.6445455" id="Path" stroke="#273139" stroke-width="0.61152" stroke-linecap="round" stroke-linejoin="round"></path>
                <path d="M80.9090909,67.1785455 C76.8636364,71.6992727 72.1439394,78.5207273 68.0984848,83.0414545" id="Path" stroke="#273139" stroke-width="0.61152" stroke-linecap="round" stroke-linejoin="round"></path>
                <path d="M72.5687121,82.4090909 C74.2990661,84.262052 76.4905221,85.6245721 78.9200758,86.358 C79.2924496,86.3710038 79.5837528,86.6827357 79.5707197,87.0542727 C79.5576866,87.4258097 79.2452526,87.7164583 78.8728788,87.7034545 C76.0363503,88.2471695 73.1071804,87.4525832 70.9370455,85.5507273" id="Path" stroke="#273139" stroke-width="0.61152" stroke-linecap="round" stroke-linejoin="round"></path>
                <path d="M70.7954545,83.7612727 C70.5557829,84.5054643 70.475387,85.2915738 70.5594697,86.0687273 C70.5911339,86.2889485 70.4725049,86.5033978 70.2688754,86.5940438 C70.0652459,86.6846897 69.8260561,86.6295238 69.6829545,86.4589091 C68.8514329,85.5538223 68.3010191,84.4274252 68.0984848,83.2163636" id="Path" stroke="#273139" stroke-width="0.61152" stroke-linecap="round" stroke-linejoin="round"></path>
                <path d="M8.82583333,58.4532727 C6.57342355,57.2871869 4.05167157,56.7370834 1.51704545,56.8589091 C1.16142847,56.9722279 0.781074012,56.7764542 0.6675,56.4216364 C0.553925988,56.0668185 0.750140589,55.6873188 1.10575758,55.574 C3.59588872,54.115528 6.62108475,53.8846802 9.30454545,54.9483636" id="Path" stroke="#273139" stroke-width="0.61152" stroke-linecap="round" stroke-linejoin="round"></path>
                <path d="M10.0664394,56.5830909 C10.0429337,55.8014587 9.8545447,55.0335502 9.51356061,54.3294545 C9.42120521,54.136512 9.4607686,53.9064379 9.61230112,53.7552459 C9.76383365,53.6040539 9.99442595,53.5645794 10.187803,53.6567273 C11.2793417,54.3347697 12.1614596,55.3010561 12.7364394,56.4485455" id="Path" stroke="#273139" stroke-width="0.61152" stroke-linecap="round" stroke-linejoin="round"></path>
                <polyline id="Path" stroke="#273139" stroke-width="0.61152" stroke-linecap="round" stroke-linejoin="round" points="88.555 66.4587273 88.4740909 66.4587273 81.165303 59.2"></polyline>
                <path d="M82.9925,67.4610909 L75.9601515,63.4247273" id="Path" stroke="#273139" stroke-width="0.61152" stroke-linecap="round" stroke-linejoin="round"></path>
                <path d="M32.8221212,67.1045455 L26.5853788,73.7578182" id="Path" stroke="#273139" stroke-width="0.61152" stroke-linecap="round" stroke-linejoin="round"></path>
                <path d="M25.1357576,73.1725455 L8.82583333,58.4532727" id="Path" stroke="#273139" stroke-width="0.61152" stroke-linecap="round" stroke-linejoin="round"></path>
                <path d="M28.3181818,63.27 L25.3987121,68.2212727" id="Path" stroke="#273139" stroke-width="0.61152" stroke-linecap="round" stroke-linejoin="round"></path>
                <path d="M25.0750758,66.6 C20.8947727,63.4314545 16.6268182,61.0365455 12.7566667,56.4418182" id="Path" stroke="#273139" stroke-width="0.61152" stroke-linecap="round" stroke-linejoin="round"></path>
                <path d="M59.5018939,65.5303636 C58.4133184,72.1440965 59.0210462,78.9251685 61.2684091,85.2412727 L61.6527273,84.7703636" id="Path" stroke="#273139" stroke-width="0.61152" stroke-linecap="round" stroke-linejoin="round"></path>
                <path d="M47.0351515,46.324 C48.0220316,53.5132844 47.5937549,60.8256139 45.7743182,67.8512727" id="Path" stroke="#273139" stroke-width="0.61152" stroke-linecap="round" stroke-linejoin="round"></path>
                <path d="M62.5831818,34.5781818 C56.2662846,32.6237549 49.4801904,32.7986999 43.2728788,35.076" id="Path" stroke="#273139" stroke-width="0.61152" stroke-linecap="round" stroke-linejoin="round"></path>
                <path d="M52.7392424,12.9096364 C52.0051824,14.9892786 52.3948964,17.299435 53.7708333,19.0247273" id="Path" stroke="#273139" stroke-width="0.68544" stroke-linecap="round" stroke-linejoin="round"></path>
                <path d="M45.0056818,13.9187273 C45.3575672,17.9125528 47.9817425,21.3477339 51.7481061,22.7449091" id="Path" stroke="#FFFFFF" stroke-width="0.6" stroke-linecap="round" stroke-linejoin="round"></path>
                <path d="M65.4015152,20.5047273 C67.5071082,19.7140534 69.0014582,17.8259474 69.284162,15.5990166 C69.5668658,13.3720857 68.5915196,11.1718649 66.75,9.88236364" id="Path" stroke="#FFFFFF" stroke-width="0.6" stroke-linecap="round" stroke-linejoin="round"></path>
                <path d="M39.7533333,17.8609091 L38.5059848,16.6163636" id="Path" stroke="#273139" stroke-width="0.68544" stroke-linecap="round" stroke-linejoin="round"></path>
                <path d="M40.8186364,20.868 L39.5712879,19.6301818" id="Path" stroke="#273139" stroke-width="0.68544" stroke-linecap="round" stroke-linejoin="round"></path>
                <path d="M40.0904545,63.3776364 C40.5017424,63.122 43.0099242,58.4667273 43.1784848,57.9958182 C43.3470455,57.5249091 43.4144697,56.7849091 42.9559848,56.6032727 C42.0929545,56.8858182 40.2590152,60.4109091 40.2590152,60.4109091 L40.0904545,63.3776364 Z" id="Path" fill="#273139" fill-rule="nonzero"></path>
            </g>
        </g>
    </g>
</svg>
